<svg id="my-svg" width="100%" xmlns="http://www.w3.org/2000/svg" xmlns:xlink="http://www.w3.org/1999/xlink" class="statediagram" style="max-width: 576.695px; background-color: white;" viewBox="0 -49 576.6953125 1095.800048828125" role="graphics-document document" aria-roledescription="stateDiagram"><style>#my-svg{font-family:Arial,sans-serif;font-size:16px;fill:#000000;}@keyframes edge-animation-frame{from{stroke-dashoffset:0;}}@keyframes dash{to{stroke-dashoffset:0;}}#my-svg .edge-animation-slow{stroke-dasharray:9,5!important;stroke-dashoffset:900;animation:dash 50s linear infinite;stroke-linecap:round;}#my-svg .edge-animation-fast{stroke-dasharray:9,5!important;stroke-dashoffset:900;animation:dash 20s linear infinite;stroke-linecap:round;}#my-svg .error-icon{fill:#552222;}#my-svg .error-text{fill:#552222;stroke:#552222;}#my-svg .edge-thickness-normal{stroke-width:1px;}#my-svg .edge-thickness-thick{stroke-width:3.5px;}#my-svg .edge-pattern-solid{stroke-dasharray:0;}#my-svg .edge-thickness-invisible{stroke-width:0;fill:none;}#my-svg .edge-pattern-dashed{stroke-dasharray:3;}#my-svg .edge-pattern-dotted{stroke-dasharray:2;}#my-svg .marker{fill:#374151;stroke:#374151;}#my-svg .marker.cross{stroke:#374151;}#my-svg svg{font-family:Arial,sans-serif;font-size:16px;}#my-svg p{margin:0;}#my-svg defs [id$="-barbEnd"]{fill:#000;stroke:#000;}#my-svg g.stateGroup text{fill:#999;stroke:none;font-size:10px;}#my-svg g.stateGroup text{fill:#000000;stroke:none;font-size:10px;}#my-svg g.stateGroup .state-title{font-weight:bolder;fill:#111827;}#my-svg g.stateGroup rect{fill:#eee;stroke:#999;}#my-svg g.stateGroup line{stroke:#374151;stroke-width:1;}#my-svg .transition{stroke:#000;stroke-width:1;fill:none;}#my-svg .stateGroup .composit{fill:#ffffff;border-bottom:1px;}#my-svg .stateGroup .alt-composit{fill:#e0e0e0;border-bottom:1px;}#my-svg .state-note{stroke:#999;fill:#666;}#my-svg .state-note text{fill:#fff;stroke:none;font-size:10px;}#my-svg .stateLabel .box{stroke:none;stroke-width:0;fill:#eee;opacity:0.5;}#my-svg .edgeLabel .label rect{fill:#eee;opacity:0.5;}#my-svg .edgeLabel{background-color:white;text-align:center;}#my-svg .edgeLabel p{background-color:white;}#my-svg .edgeLabel rect{opacity:0.5;background-color:white;fill:white;}#my-svg .edgeLabel .label text{fill:#000000;}#my-svg .label div .edgeLabel{color:#000000;}#my-svg .stateLabel text{fill:#111827;font-size:10px;font-weight:bold;}#my-svg .node circle.state-start{fill:#222;stroke:#222;}#my-svg .node .fork-join{fill:#222;stroke:#222;}#my-svg .node circle.state-end{fill:#4b5563;stroke:#ffffff;stroke-width:1.5;}#my-svg .end-state-inner{fill:#ffffff;stroke-width:1.5;}#my-svg .node rect{fill:#eee;stroke:#000;stroke-width:1px;}#my-svg .node polygon{fill:#eee;stroke:#000;stroke-width:1px;}#my-svg [id$="-barbEnd"]{fill:#374151;}#my-svg .statediagram-cluster rect{fill:#eee;stroke:#000;stroke-width:1px;}#my-svg .cluster-label,#my-svg .nodeLabel{color:#111827;}#my-svg .statediagram-cluster rect.outer{rx:5px;ry:5px;}#my-svg .statediagram-state .divider{stroke:#000;}#my-svg .statediagram-state .title-state{rx:5px;ry:5px;}#my-svg .statediagram-cluster.statediagram-cluster .inner{fill:#ffffff;}#my-svg .statediagram-cluster.statediagram-cluster-alt .inner{fill:#f4f4f4;}#my-svg .statediagram-cluster .inner{rx:0;ry:0;}#my-svg .statediagram-state rect.basic{rx:5px;ry:5px;}#my-svg .statediagram-state rect.divider{stroke-dasharray:10,10;fill:#f4f4f4;}#my-svg .note-edge{stroke-dasharray:5;}#my-svg .statediagram-note rect{fill:#666;stroke:#999;stroke-width:1px;rx:0;ry:0;}#my-svg .statediagram-note rect{fill:#666;stroke:#999;stroke-width:1px;rx:0;ry:0;}#my-svg .statediagram-note text{fill:#fff;}#my-svg .statediagram-note .nodeLabel{color:#fff;}#my-svg .statediagram .edgeLabel{color:red;}#my-svg [id$="-dependencyStart"],#my-svg [id$="-dependencyEnd"]{fill:#374151;stroke:#374151;stroke-width:1;}#my-svg .statediagramTitleText{text-anchor:middle;font-size:18px;fill:#000000;}#my-svg [data-look="neo"].statediagram-cluster rect{fill:#eee;stroke:url(#my-svg-gradient);stroke-width:1;}#my-svg [data-look="neo"].statediagram-cluster rect.outer{rx:5px;ry:5px;filter:drop-shadow( 1px 2px 2px rgba(185,185,185,1));}#my-svg .node .neo-node{stroke:#999;}#my-svg [data-look="neo"].node rect,#my-svg [data-look="neo"].cluster rect,#my-svg [data-look="neo"].node polygon{stroke:url(#my-svg-gradient);filter:drop-shadow( 1px 2px 2px rgba(185,185,185,1));}#my-svg [data-look="neo"].swimlane.cluster rect{filter:none;}#my-svg [data-look="neo"].node path{stroke:url(#my-svg-gradient);stroke-width:1px;}#my-svg [data-look="neo"].node .outer-path{filter:drop-shadow( 1px 2px 2px rgba(185,185,185,1));}#my-svg [data-look="neo"].node .neo-line path{stroke:#999;filter:none;}#my-svg [data-look="neo"].node circle{stroke:url(#my-svg-gradient);filter:drop-shadow( 1px 2px 2px rgba(185,185,185,1));}#my-svg [data-look="neo"].node circle .state-start{fill:#000000;}#my-svg [data-look="neo"].icon-shape .icon{fill:url(#my-svg-gradient);filter:drop-shadow( 1px 2px 2px rgba(185,185,185,1));}#my-svg [data-look="neo"].icon-shape .icon-neo path{stroke:url(#my-svg-gradient);filter:drop-shadow( 1px 2px 2px rgba(185,185,185,1));}#my-svg :root{--mermaid-font-family:Arial,sans-serif;}</style><g><defs><marker id="my-svg_stateDiagram-barbEnd" refX="19" refY="7" markerWidth="20" markerHeight="14" markerUnits="userSpaceOnUse" orient="auto"><path d="M 19,7 L9,13 L14,7 L9,1 Z"/></marker></defs><g class="root"><g class="clusters"/><g class="edgePaths"><path d="M143.527,22L143.527,30.417C143.527,38.833,143.527,55.667,143.527,72.5C143.527,89.333,143.527,106.167,143.527,114.583L143.527,123" id="my-svg-edge0" class="edge-thickness-normal edge-pattern-solid transition" style="fill:none;;;fill:none" data-edge="true" data-et="edge" data-id="edge0" data-points="W3sieCI6MTQzLjUyNzM0Mzc1LCJ5IjoyMn0seyJ4IjoxNDMuNTI3MzQzNzUsInkiOjcyLjV9LHsieCI6MTQzLjUyNzM0Mzc1LCJ5IjoxMjN9XQ==" data-look="classic" marker-end="url(#my-svg_stateDiagram-barbEnd)"/><path d="M146.079,163L147.341,172.883C148.602,182.767,151.124,202.533,160.873,222.3C170.621,242.067,187.596,261.833,196.084,271.717L204.571,281.6" id="my-svg-edge1" class="edge-thickness-normal edge-pattern-solid transition" style="fill:none;;;fill:none" data-edge="true" data-et="edge" data-id="edge1" data-points="W3sieCI6MTQ2LjA3OTQ1OTk0NzMxNTQsInkiOjE2M30seyJ4IjoxNTMuNjQ2NDg0Mzc1LCJ5IjoyMjIuMjk5OTk5MjM3MDYwNTV9LHsieCI6MjA0LjU3MDkwODM3MDM4MzAyLCJ5IjoyODEuNTk5OTk4NDc0MTIxMX1d" data-look="classic" marker-end="url(#my-svg_stateDiagram-barbEnd)"/><path d="M199.52,163L227.189,172.883C254.859,182.767,310.198,202.533,319.947,222.3C329.695,242.067,293.853,261.833,275.932,271.717L258.011,281.6" id="my-svg-edge2" class="edge-thickness-normal edge-pattern-solid transition" style="fill:none;;;fill:none" data-edge="true" data-et="edge" data-id="edge2" data-points="W3sieCI6MTk5LjUxOTcxODk3MzQ0LCJ5IjoxNjN9LHsieCI6MzY1LjUzNzEwOTM3NSwieSI6MjIyLjI5OTk5OTIzNzA2MDU1fSx7IngiOjI1OC4wMTExNjczOTY1MDc2MywieSI6MjgxLjU5OTk5ODQ3NDEyMTF9XQ==" data-look="classic" marker-end="url(#my-svg_stateDiagram-barbEnd)"/><path d="M221.746,321.6L221.746,331.483C221.746,341.367,221.746,361.133,236.508,380.9C251.27,400.667,280.794,420.433,295.556,430.317L310.318,440.2" id="my-svg-edge3" class="edge-thickness-normal edge-pattern-solid transition" style="fill:none;;;fill:none" data-edge="true" data-et="edge" data-id="edge3" data-points="W3sieCI6MjIxLjc0NjA5Mzc1LCJ5IjozMjEuNTk5OTk4NDc0MTIxMX0seyJ4IjoyMjEuNzQ2MDkzNzUsInkiOjM4MC44OTk5OTc3MTExODE2NH0seyJ4IjozMTAuMzE3NTUyNDgyNTgyMiwieSI6NDQwLjE5OTk5Njk0ODI0MjJ9XQ==" data-look="classic" marker-end="url(#my-svg_stateDiagram-barbEnd)"/><path d="M373.762,504.2L377.878,512.617C381.994,521.033,390.225,537.867,394.341,554.7C398.457,571.533,398.457,588.367,398.457,596.783L398.457,605.2" id="my-svg-edge4" class="edge-thickness-normal edge-pattern-solid transition" style="fill:none;;;fill:none" data-edge="true" data-et="edge" data-id="edge4" data-points="W3sieCI6MzczLjc2MTc2NjA5ODQ4NDgsInkiOjUwNC4xOTk5OTY5NDgyNDIyfSx7IngiOjM5OC40NTcwMzEyNSwieSI6NTU0LjY5OTk5Njk0ODI0MjJ9LHsieCI6Mzk4LjQ1NzAzMTI1LCJ5Ijo2MDUuMTk5OTk2OTQ4MjQyMn1d" data-look="classic" marker-end="url(#my-svg_stateDiagram-barbEnd)"/><path d="M377.117,440.2L382.986,430.317C388.855,420.433,400.594,400.667,382.71,380.9C364.826,361.133,317.319,341.367,293.566,331.483L269.813,321.6" id="my-svg-edge5" class="edge-thickness-normal edge-pattern-solid transition" style="fill:none;;;fill:none" data-edge="true" data-et="edge" data-id="edge5" data-points="W3sieCI6Mzc3LjExNjU2NzI3OTU1NDgzLCJ5Ijo0NDAuMTk5OTk2OTQ4MjQyMn0seyJ4Ijo0MTIuMzMyMDMxMjUsInkiOjM4MC44OTk5OTc3MTExODE2NH0seyJ4IjoyNjkuODEzMTY1NDYwODczNDUsInkiOjMyMS41OTk5OTg0NzQxMjExfV0=" data-look="classic" marker-end="url(#my-svg_stateDiagram-barbEnd)"/><path d="M417.338,645.2L426.668,655.083C435.999,664.967,454.66,684.733,463.99,704.5C473.32,724.267,473.32,744.033,473.32,753.917L473.32,763.8" id="my-svg-edge6" class="edge-thickness-normal edge-pattern-solid transition" style="fill:none;;;fill:none" data-edge="true" data-et="edge" data-id="edge6" data-points="W3sieCI6NDE3LjMzODA2MDc1MDY5NDYsInkiOjY0NS4xOTk5OTY5NDgyNDIyfSx7IngiOjQ3My4zMjAzMTI1LCJ5Ijo3MDQuNDk5OTk2MTg1MzAyN30seyJ4Ijo0NzMuMzIwMzEyNSwieSI6NzYzLjc5OTk5NTQyMjM2MzN9XQ==" data-look="classic" marker-end="url(#my-svg_stateDiagram-barbEnd)"/><path d="M473.32,803.8L473.32,812.217C473.32,820.633,473.32,837.467,473.32,854.3C473.32,871.133,473.32,887.967,473.32,896.383L473.32,904.8" id="my-svg-edge7" class="edge-thickness-normal edge-pattern-solid transition" style="fill:none;;;fill:none" data-edge="true" data-et="edge" data-id="edge7" data-points="W3sieCI6NDczLjMyMDMxMjUsInkiOjgwMy43OTk5OTU0MjIzNjMzfSx7IngiOjQ3My4zMjAzMTI1LCJ5Ijo4NTQuMjk5OTk1NDIyMzYzM30seyJ4Ijo0NzMuMzIwMzEyNSwieSI6OTA0Ljc5OTk5NTQyMjM2MzN9XQ==" data-look="classic" marker-end="url(#my-svg_stateDiagram-barbEnd)"/><path d="M118.01,163L105.4,172.883C92.791,182.767,67.571,202.533,54.961,225.633C42.352,248.733,42.352,275.167,42.352,301.6C42.352,328.033,42.352,354.467,42.352,382.9C42.352,411.333,42.352,441.767,42.352,470.733C42.352,499.7,42.352,527.2,42.352,552.7C42.352,578.2,42.352,601.7,42.352,626.667C42.352,651.633,42.352,678.067,53.522,701.167C64.693,724.267,87.034,744.033,98.205,753.917L109.375,763.8" id="my-svg-edge8" class="edge-thickness-normal edge-pattern-solid transition" style="fill:none;;;fill:none" data-edge="true" data-et="edge" data-id="edge8" data-points="W3sieCI6MTE4LjAxMDEyMjUwODI4MzgsInkiOjE2M30seyJ4Ijo0Mi4zNTE1NjI1LCJ5IjoyMjIuMjk5OTk5MjM3MDYwNTV9LHsieCI6NDIuMzUxNTYyNSwieSI6MzAxLjU5OTk5ODQ3NDEyMTF9LHsieCI6NDIuMzUxNTYyNSwieSI6MzgwLjg5OTk5NzcxMTE4MTY0fSx7IngiOjQyLjM1MTU2MjUsInkiOjQ3Mi4xOTk5OTY5NDgyNDIyfSx7IngiOjQyLjM1MTU2MjUsInkiOjU1NC42OTk5OTY5NDgyNDIyfSx7IngiOjQyLjM1MTU2MjUsInkiOjYyNS4xOTk5OTY5NDgyNDIyfSx7IngiOjQyLjM1MTU2MjUsInkiOjcwNC40OTk5OTYxODUzMDI3fSx7IngiOjEwOS4zNzU0NDgwNDA3MTU0OCwieSI6NzYzLjc5OTk5NTQyMjM2MzN9XQ==" data-look="classic" marker-end="url(#my-svg_stateDiagram-barbEnd)"/><path d="M190.209,321.6L174.625,331.483C159.041,341.367,127.872,361.133,112.288,386.233C96.703,411.333,96.703,441.767,96.703,470.733C96.703,499.7,96.703,527.2,96.703,552.7C96.703,578.2,96.703,601.7,96.703,626.667C96.703,651.633,96.703,678.067,101.1,701.167C105.497,724.267,114.29,744.033,118.687,753.917L123.083,763.8" id="my-svg-edge9" class="edge-thickness-normal edge-pattern-solid transition" style="fill:none;;;fill:none" data-edge="true" data-et="edge" data-id="edge9" data-points="W3sieCI6MTkwLjIwOTQwNTIzNzI1NjIsInkiOjMyMS41OTk5OTg0NzQxMjExfSx7IngiOjk2LjcwMzEyNSwieSI6MzgwLjg5OTk5NzcxMTE4MTY0fSx7IngiOjk2LjcwMzEyNSwieSI6NDcyLjE5OTk5Njk0ODI0MjJ9LHsieCI6OTYuNzAzMTI1LCJ5Ijo1NTQuNjk5OTk2OTQ4MjQyMn0seyJ4Ijo5Ni43MDMxMjUsInkiOjYyNS4xOTk5OTY5NDgyNDIyfSx7IngiOjk2LjcwMzEyNSwieSI6NzA0LjQ5OTk5NjE4NTMwMjd9LHsieCI6MTIzLjA4MzI4MjM0NjYyMDI1LCJ5Ijo3NjMuNzk5OTk1NDIyMzYzM31d" data-look="classic" marker-end="url(#my-svg_stateDiagram-barbEnd)"/><path d="M295.962,504.2L279.615,512.617C263.267,521.033,230.573,537.867,214.226,558.033C197.879,578.2,197.879,601.7,197.879,626.667C197.879,651.633,197.879,678.067,189.666,701.167C181.453,724.267,165.027,744.033,156.814,753.917L148.601,763.8" id="my-svg-edge10" class="edge-thickness-normal edge-pattern-solid transition" style="fill:none;;;fill:none" data-edge="true" data-et="edge" data-id="edge10" data-points="W3sieCI6Mjk1Ljk2MTc2NjA5ODQ4NDksInkiOjUwNC4xOTk5OTY5NDgyNDIyfSx7IngiOjE5Ny44Nzg5MDYyNSwieSI6NTU0LjY5OTk5Njk0ODI0MjJ9LHsieCI6MTk3Ljg3ODkwNjI1LCJ5Ijo2MjUuMTk5OTk2OTQ4MjQyMn0seyJ4IjoxOTcuODc4OTA2MjUsInkiOjcwNC40OTk5OTYxODUzMDI3fSx7IngiOjE0OC42MDA1MDM1ODgzMzY0NCwieSI6NzYzLjc5OTk5NTQyMjM2MzN9XQ==" data-look="classic" marker-end="url(#my-svg_stateDiagram-barbEnd)"/><path d="M375.258,645.2L363.794,655.083C352.33,664.967,329.401,684.733,296.19,704.5C262.978,724.267,219.483,744.033,197.736,753.917L175.989,763.8" id="my-svg-edge11" class="edge-thickness-normal edge-pattern-solid transition" style="fill:none;;;fill:none" data-edge="true" data-et="edge" data-id="edge11" data-points="W3sieCI6Mzc1LjI1Nzk0NTI3NjQ4ODA0LCJ5Ijo2NDUuMTk5OTk2OTQ4MjQyMn0seyJ4IjozMDYuNDcyNjU2MjUsInkiOjcwNC40OTk5OTYxODUzMDI3fSx7IngiOjE3NS45ODg1ODcwODAwODIzNCwieSI6NzYzLjc5OTk5NTQyMjM2MzN9XQ==" data-look="classic" marker-end="url(#my-svg_stateDiagram-barbEnd)"/><path d="M131.98,803.8L131.98,812.217C131.98,820.633,131.98,837.467,131.98,857.633C131.98,877.8,131.98,901.3,131.98,923.05C131.98,944.8,131.98,964.8,156.22,982.289C180.46,999.777,228.939,1014.755,253.179,1022.243L277.419,1029.732" id="my-svg-edge12" class="edge-thickness-normal edge-pattern-solid transition" style="fill:none;;;fill:none" data-edge="true" data-et="edge" data-id="edge12" data-points="W3sieCI6MTMxLjk4MDQ2ODc1LCJ5Ijo4MDMuNzk5OTk1NDIyMzYzM30seyJ4IjoxMzEuOTgwNDY4NzUsInkiOjg1NC4yOTk5OTU0MjIzNjMzfSx7IngiOjEzMS45ODA0Njg3NSwieSI6OTI0Ljc5OTk5NTQyMjM2MzN9LHsieCI6MTMxLjk4MDQ2ODc1LCJ5Ijo5ODQuNzk5OTk1NDIyMzYzM30seyJ4IjoyNzcuNDE4ODI4Njg5NzE2NCwieSI6MTAyOS43MzE4MDczMzYxNTg1fV0=" data-look="classic" marker-end="url(#my-svg_stateDiagram-barbEnd)"/><path d="M473.32,944.8L473.32,951.467C473.32,958.133,473.32,971.467,442.919,985.685C412.518,999.904,351.716,1015.007,321.314,1022.559L290.913,1030.111" id="my-svg-edge13" class="edge-thickness-normal edge-pattern-solid transition" style="fill:none;;;fill:none" data-edge="true" data-et="edge" data-id="edge13" data-points="W3sieCI6NDczLjMyMDMxMjUsInkiOjk0NC43OTk5OTU0MjIzNjMzfSx7IngiOjQ3My4zMjAzMTI1LCJ5Ijo5ODQuNzk5OTk1NDIyMzYzM30seyJ4IjoyOTAuOTEzMjcxMDMzMjg2NCwieSI6MTAzMC4xMTA4NDI5NzU0MjJ9XQ==" data-look="classic" marker-end="url(#my-svg_stateDiagram-barbEnd)"/></g><g class="edgeLabels"><g class="edgeLabel" transform="translate(143.52734375, 72.5)"><g class="label" data-id="edge0" transform="translate(0.44921875, -10.5)"><g><rect class="background" style="" x="-83.4765625" y="0" width="166.0546875" height="21"/><text y="-10.1" text-anchor="middle" style=""><tspan class="text-outer-tspan row" x="0" y="-0.1em" dy="1.1em" text-anchor="middle"><tspan font-style="normal" class="text-inner-tspan" font-weight="normal">Abrir</tspan><tspan font-style="normal" class="text-inner-tspan" font-weight="normal"> ordem</tspan><tspan font-style="normal" class="text-inner-tspan" font-weight="normal"> de</tspan><tspan font-style="normal" class="text-inner-tspan" font-weight="normal"> serviço</tspan></tspan></text></g></g></g><g class="edgeLabel" transform="translate(153.646484375, 222.29999923706055)"><g class="label" data-id="edge1" transform="translate(-0.05078125, -10.5)"><g><rect class="background" style="" x="-66.0390625" y="0" width="132.1796875" height="21"/><text y="-10.1" text-anchor="middle" style=""><tspan class="text-outer-tspan row" x="0" y="-0.1em" dy="1.1em" text-anchor="middle"><tspan font-style="normal" class="text-inner-tspan" font-weight="normal">Iniciar</tspan><tspan font-style="normal" class="text-inner-tspan" font-weight="normal"> diagnóstico</tspan></tspan></text></g></g></g><g class="edgeLabel" transform="translate(365.537109375, 222.29999923706055)"><g class="label" data-id="edge2" transform="translate(-0.046875, -19.299999237060547)"><g><rect class="background" style="" x="-76.7109375" y="0" width="153.515625" height="38.599998474121094"/><text y="-10.1" text-anchor="middle" style=""><tspan class="text-outer-tspan row" x="0" y="-0.1em" dy="1.1em" text-anchor="middle"><tspan font-style="normal" class="text-inner-tspan" font-weight="normal">Submeter</tspan><tspan font-style="normal" class="text-inner-tspan" font-weight="normal"> orçamento</tspan></tspan><tspan class="text-outer-tspan row" x="0" y="1em" dy="1.1em" text-anchor="middle"><tspan font-style="normal" class="text-inner-tspan" font-weight="normal">diretamente</tspan></tspan></text></g></g></g><g class="edgeLabel" transform="translate(221.74609375, 380.89999771118164)"><g class="label" data-id="edge3" transform="translate(-0.046875, -10.5)"><g><rect class="background" style="" x="-76.7109375" y="0" width="153.515625" height="21"/><text y="-10.1" text-anchor="middle" style=""><tspan class="text-outer-tspan row" x="0" y="-0.1em" dy="1.1em" text-anchor="middle"><tspan font-style="normal" class="text-inner-tspan" font-weight="normal">Submeter</tspan><tspan font-style="normal" class="text-inner-tspan" font-weight="normal"> orçamento</tspan></tspan></text></g></g></g><g class="edgeLabel" transform="translate(398.45703125, 554.6999969482422)"><g class="label" data-id="edge4" transform="translate(-0.046875, -10.5)"><g><rect class="background" style="" x="-100.2890625" y="0" width="200.671875" height="21"/><text y="-10.1" text-anchor="middle" style=""><tspan class="text-outer-tspan row" x="0" y="-0.1em" dy="1.1em" text-anchor="middle"><tspan font-style="normal" class="text-inner-tspan" font-weight="normal">Cliente</tspan><tspan font-style="normal" class="text-inner-tspan" font-weight="normal"> aprova</tspan><tspan font-style="normal" class="text-inner-tspan" font-weight="normal"> o</tspan><tspan font-style="normal" class="text-inner-tspan" font-weight="normal"> orçamento</tspan></tspan></text></g></g></g><g class="edgeLabel" transform="translate(412.33203125, 380.89999771118164)"><g class="label" data-id="edge5" transform="translate(0, -19.299999237060547)"><g><rect class="background" style="" x="-93.828125" y="0" width="187.65625" height="38.599998474121094"/><text y="-10.1" text-anchor="middle" style=""><tspan class="text-outer-tspan row" x="0" y="-0.1em" dy="1.1em" text-anchor="middle"><tspan font-style="normal" class="text-inner-tspan" font-weight="normal">Cliente</tspan><tspan font-style="normal" class="text-inner-tspan" font-weight="normal"> rejeita</tspan><tspan font-style="normal" class="text-inner-tspan" font-weight="normal"> (Estimate</tspan><tspan font-style="normal" class="text-inner-tspan" font-weight="normal"> =</tspan></tspan><tspan class="text-outer-tspan row" x="0" y="1em" dy="1.1em" text-anchor="middle"><tspan font-style="normal" class="text-inner-tspan" font-weight="normal">Rejected)</tspan></tspan></text></g></g></g><g class="edgeLabel" transform="translate(473.3203125, 704.4999961853027)"><g class="label" data-id="edge6" transform="translate(0, -19.299999237060547)"><g><rect class="background" style="" x="-95.375" y="0" width="190.75" height="38.599998474121094"/><text y="-10.1" text-anchor="middle" style=""><tspan class="text-outer-tspan row" x="0" y="-0.1em" dy="1.1em" text-anchor="middle"><tspan font-style="normal" class="text-inner-tspan" font-weight="normal">Concluir</tspan><tspan font-style="normal" class="text-inner-tspan" font-weight="normal"> todos</tspan><tspan font-style="normal" class="text-inner-tspan" font-weight="normal"> os</tspan><tspan font-style="normal" class="text-inner-tspan" font-weight="normal"> serviços</tspan></tspan><tspan class="text-outer-tspan row" x="0" y="1em" dy="1.1em" text-anchor="middle"><tspan font-style="normal" class="text-inner-tspan" font-weight="normal">aprovados</tspan></tspan></text></g></g></g><g class="edgeLabel" transform="translate(473.3203125, 854.2999954223633)"><g class="label" data-id="edge7" transform="translate(-0.05078125, -10.5)"><g><rect class="background" style="" x="-60.2578125" y="0" width="120.6171875" height="21"/><text y="-10.1" text-anchor="middle" style=""><tspan class="text-outer-tspan row" x="0" y="-0.1em" dy="1.1em" text-anchor="middle"><tspan font-style="normal" class="text-inner-tspan" font-weight="normal">Entregar</tspan><tspan font-style="normal" class="text-inner-tspan" font-weight="normal"> veículo</tspan></tspan></text></g></g></g><g class="edgeLabel" transform="translate(42.3515625, 472.1999969482422)"><g class="label" data-id="edge8" transform="translate(-0.3359375, -10.5)"><g><rect class="background" style="" x="-34.015625" y="0" width="68.703125" height="21"/><text y="-10.1" text-anchor="middle" style=""><tspan class="text-outer-tspan row" x="0" y="-0.1em" dy="1.1em" text-anchor="middle"><tspan font-style="normal" class="text-inner-tspan" font-weight="normal">Cancelar</tspan></tspan></text></g></g></g><g class="edgeLabel" transform="translate(96.703125, 554.6999969482422)"><g class="label" data-id="edge9" transform="translate(-0.3359375, -10.5)"><g><rect class="background" style="" x="-34.015625" y="0" width="68.703125" height="21"/><text y="-10.1" text-anchor="middle" style=""><tspan class="text-outer-tspan row" x="0" y="-0.1em" dy="1.1em" text-anchor="middle"><tspan font-style="normal" class="text-inner-tspan" font-weight="normal">Cancelar</tspan></tspan></text></g></g></g><g class="edgeLabel" transform="translate(197.87890625, 625.1999969482422)"><g class="label" data-id="edge10" transform="translate(-0.3359375, -10.5)"><g><rect class="background" style="" x="-34.015625" y="0" width="68.703125" height="21"/><text y="-10.1" text-anchor="middle" style=""><tspan class="text-outer-tspan row" x="0" y="-0.1em" dy="1.1em" text-anchor="middle"><tspan font-style="normal" class="text-inner-tspan" font-weight="normal">Cancelar</tspan></tspan></text></g></g></g><g class="edgeLabel" transform="translate(282.57075, 715.36249)"><g class="label" data-id="edge11" transform="translate(-0.3359375, -10.5)"><g><rect class="background" style="" x="-34.015625" y="0" width="68.703125" height="21"/><text y="-10.1" text-anchor="middle" style=""><tspan class="text-outer-tspan row" x="0" y="-0.1em" dy="1.1em" text-anchor="middle"><tspan font-style="normal" class="text-inner-tspan" font-weight="normal">Cancelar</tspan></tspan></text></g></g></g><g class="edgeLabel"><g class="label" data-id="edge12" transform="translate(0, 0)"><text y="-10.1" text-anchor="middle"><tspan class="text-outer-tspan row" x="0" y="-0.1em" dy="1.1em" text-anchor="middle"/></text></g></g><g><rect class="background" style="stroke: none"/></g><g class="edgeLabel"><g class="label" data-id="edge13" transform="translate(0, 0)"><text y="-10.1" text-anchor="middle"><tspan class="text-outer-tspan row" x="0" y="-0.1em" dy="1.1em" text-anchor="middle"/></text></g></g><g><rect class="background" style="stroke: none"/></g></g><g class="nodes"><g class="node default" id="my-svg-state-root_start-0" data-look="classic" transform="translate(143.52734375, 15)"><circle class="state-start" r="7" width="14" height="14"/></g><g class="node  statediagram-state" id="my-svg-state-Received-8" data-look="classic" transform="translate(143.52734375, 143)"><rect class="basic label-container" style="" rx="5" ry="5" x="-81.8203125" y="-20" width="163.640625" height="40"/><g class="label" style="" transform="translate(-73.8203125, -12)"><rect/><foreignObject width="147.640625" height="24"><div xmlns="http://www.w3.org/1999/xhtml" style="display: table-cell; white-space: nowrap; line-height: 1.5; max-width: 200px; text-align: center;"><span class="nodeLabel markdown-node-label"><p>Recebida / Received</p></span></div></foreignObject></g></g><g class="node  statediagram-state" id="my-svg-state-Diagnosing-9" data-look="classic" transform="translate(221.74609375, 301.5999984741211)"><rect class="basic label-container" style="" rx="5" ry="5" x="-96.5" y="-20" width="193" height="40"/><g class="label" style="" transform="translate(-88.5, -12)"><rect/><foreignObject width="177" height="24"><div xmlns="http://www.w3.org/1999/xhtml" style="display: table-cell; white-space: nowrap; line-height: 1.5; max-width: 200px; text-align: center;"><span class="nodeLabel markdown-node-label"><p>Diagnóstico / Diagnosing</p></span></div></foreignObject></g></g><g class="node  statediagram-state" id="my-svg-state-WaitingApproval-10" data-look="classic" transform="translate(358.11328125, 472.1999969482422)"><rect class="basic label-container" style="" rx="5" ry="5" x="-108" y="-32" width="216" height="64"/><g class="label" style="" transform="translate(-100, -24)"><rect/><foreignObject width="200" height="48"><div xmlns="http://www.w3.org/1999/xhtml" style="display: table; white-space: break-spaces; line-height: 1.5; max-width: 200px; text-align: center; width: 200px;"><span class="nodeLabel markdown-node-label"><p>Aguardando aprovação / WaitingApproval</p></span></div></foreignObject></g></g><g class="node  statediagram-state" id="my-svg-state-InProgress-11" data-look="classic" transform="translate(398.45703125, 625.1999969482422)"><rect class="basic label-container" style="" rx="5" ry="5" x="-88.484375" y="-20" width="176.96875" height="40"/><g class="label" style="" transform="translate(-80.484375, -12)"><rect/><foreignObject width="160.96875" height="24"><div xmlns="http://www.w3.org/1999/xhtml" style="display: table-cell; white-space: nowrap; line-height: 1.5; max-width: 200px; text-align: center;"><span class="nodeLabel markdown-node-label"><p>Execução / InProgress</p></span></div></foreignObject></g></g><g class="node  statediagram-state" id="my-svg-state-Completed-7" data-look="classic" transform="translate(473.3203125, 783.7999954223633)"><rect class="basic label-container" style="" rx="5" ry="5" x="-89.8203125" y="-20" width="179.640625" height="40"/><g class="label" style="" transform="translate(-81.8203125, -12)"><rect/><foreignObject width="163.640625" height="24"><div xmlns="http://www.w3.org/1999/xhtml" style="display: table-cell; white-space: nowrap; line-height: 1.5; max-width: 200px; text-align: center;"><span class="nodeLabel markdown-node-label"><p>Finalizada / Completed</p></span></div></foreignObject></g></g><g class="node  statediagram-state" id="my-svg-state-Delivered-13" data-look="classic" transform="translate(473.3203125, 924.7999954223633)"><rect class="basic label-container" style="" rx="5" ry="5" x="-80.9296875" y="-20" width="161.859375" height="40"/><g class="label" style="" transform="translate(-72.9296875, -12)"><rect/><foreignObject width="145.859375" height="24"><div xmlns="http://www.w3.org/1999/xhtml" style="display: table-cell; white-space: nowrap; line-height: 1.5; max-width: 200px; text-align: center;"><span class="nodeLabel markdown-node-label"><p>Entregue / Delivered</p></span></div></foreignObject></g></g><g class="node  statediagram-state" id="my-svg-state-Cancelled-12" data-look="classic" transform="translate(131.98046875, 783.7999954223633)"><rect class="basic label-container" style="" rx="5" ry="5" x="-88.5" y="-20" width="177" height="40"/><g class="label" style="" transform="translate(-80.5, -12)"><rect/><foreignObject width="161" height="24"><div xmlns="http://www.w3.org/1999/xhtml" style="display: table-cell; white-space: nowrap; line-height: 1.5; max-width: 200px; text-align: center;"><span class="nodeLabel markdown-node-label"><p>Cancelada / Cancelled</p></span></div></foreignObject></g></g><g class="node default" id="my-svg-state-root_end-13" data-look="classic" transform="translate(284.11328125, 1031.7999954223633)"><g class="outer-path"><path d="M7 0 C7 0.40517908122283747, 6.964012880168563 0.816513743121899, 6.893654271085456 1.2155372436685123 C6.823295662002349 1.6145607442151257, 6.716427752933756 2.013397210557766, 6.5778483455013586 2.394141003279681 C6.439268938068961 2.7748847960015954, 6.26476736710249 3.149104622578984, 6.062177826491071 3.4999999999999996 C5.859588285879653 3.8508953774210153, 5.622755194947063 4.189128084166967, 5.362311101832846 4.499513267805774 C5.10186700871863 4.809898451444582, 4.809898451444583 5.10186700871863, 4.499513267805775 5.362311101832846 C4.189128084166968 5.622755194947063, 3.8508953774210166 5.859588285879652, 3.500000000000001 6.06217782649107 C3.149104622578985 6.264767367102489, 2.7748847960015963 6.439268938068961, 2.3941410032796817 6.5778483455013586 C2.013397210557767 6.716427752933756, 1.6145607442151264 6.823295662002349, 1.2155372436685128 6.893654271085456 C0.8165137431218992 6.964012880168563, 0.4051790812228379 7, 4.286263797015736e-16 7 C-0.405179081222837 7, -0.8165137431218985 6.964012880168563, -1.2155372436685121 6.893654271085456 C-1.6145607442151257 6.823295662002349, -2.0133972105577667 6.716427752933756, -2.394141003279681 6.5778483455013586 C-2.774884796001595 6.439268938068961, -3.149104622578983 6.26476736710249, -3.4999999999999982 6.062177826491071 C-3.8508953774210135 5.859588285879653, -4.189128084166966 5.6227551949470636, -4.499513267805773 5.362311101832848 C-4.809898451444581 5.101867008718632, -5.101867008718628 4.809898451444586, -5.3623111018328435 4.499513267805779 C-5.622755194947059 4.189128084166971, -5.859588285879649 3.8508953774210206, -6.062177826491068 3.5000000000000053 C-6.264767367102486 3.14910462257899, -6.439268938068958 2.774884796001602, -6.577848345501356 2.394141003279688 C-6.716427752933754 2.0133972105577738, -6.823295662002347 1.614560744215134, -6.893654271085454 1.215537243668521 C-6.9640128801685615 0.816513743121908, -6.999999999999999 0.4051790812228472, -7 1.0183126166254463e-14 C-7.000000000000001 -0.40517908122282686, -6.964012880168565 -0.8165137431218878, -6.893654271085459 -1.215537243668501 C-6.823295662002352 -1.6145607442151142, -6.716427752933759 -2.0133972105577542, -6.577848345501363 -2.394141003279669 C-6.439268938068967 -2.7748847960015834, -6.264767367102496 -3.149104622578972, -6.062177826491078 -3.4999999999999876 C-5.859588285879661 -3.8508953774210033, -5.6227551949470715 -4.1891280841669545, -5.362311101832856 -4.499513267805763 C-5.10186700871864 -4.809898451444571, -4.809898451444594 -5.10186700871862, -4.499513267805787 -5.362311101832836 C-4.189128084166979 -5.622755194947053, -3.850895377421028 -5.859588285879643, -3.5000000000000133 -6.062177826491062 C-3.1491046225789985 -6.264767367102482, -2.774884796001611 -6.439268938068954, -2.3941410032796973 -6.577848345501353 C-2.0133972105577835 -6.716427752933752, -1.6145607442151435 -6.823295662002345, -1.2155372436685306 -6.893654271085453 C-0.8165137431219176 -6.9640128801685615, -0.40517908122285695 -6.999999999999999, -1.9937625952807352e-14 -7 C0.4051790812228171 -7.000000000000001, 0.8165137431218781 -6.964012880168565, 1.2155372436684913 -6.89365427108546 C1.6145607442151044 -6.823295662002354, 2.013397210557745 -6.716427752933763, 2.3941410032796595 -6.5778483455013665 C2.774884796001574 -6.43926893806897, 3.149104622578963 -6.2647673671025, 3.499999999999979 -6.062177826491083 C3.8508953774209953 -5.859588285879665, 4.189128084166947 -5.622755194947077, 4.499513267805756 -5.362311101832862 C4.809898451444564 -5.1018670087186475, 5.101867008718613 -4.809898451444602, 5.362311101832829 -4.499513267805796 C5.622755194947046 -4.189128084166989, 5.859588285879637 -3.8508953774210393, 6.062177826491056 -3.500000000000025 C6.2647673671024755 -3.1491046225790105, 6.439268938068949 -2.774884796001623, 6.577848345501348 -2.3941410032797092 C6.716427752933747 -2.0133972105577955, 6.823295662002342 -1.6145607442151562, 6.893654271085451 -1.2155372436685434 C6.96401288016856 -0.8165137431219307, 6.982275711847575 -0.2025895406114567, 7 -3.2800750208310675e-14 C7.017724288152425 0.2025895406113911, 7.017724288152424 -0.2025895406114242, 7 0" stroke="none" stroke-width="0" fill="#eee" style=""/><path d="M7 0 C7 0.40517908122283747, 6.964012880168563 0.816513743121899, 6.893654271085456 1.2155372436685123 C6.823295662002349 1.6145607442151257, 6.716427752933756 2.013397210557766, 6.5778483455013586 2.394141003279681 C6.439268938068961 2.7748847960015954, 6.26476736710249 3.149104622578984, 6.062177826491071 3.4999999999999996 C5.859588285879653 3.8508953774210153, 5.622755194947063 4.189128084166967, 5.362311101832846 4.499513267805774 C5.10186700871863 4.809898451444582, 4.809898451444583 5.10186700871863, 4.499513267805775 5.362311101832846 C4.189128084166968 5.622755194947063, 3.8508953774210166 5.859588285879652, 3.500000000000001 6.06217782649107 C3.149104622578985 6.264767367102489, 2.7748847960015963 6.439268938068961, 2.3941410032796817 6.5778483455013586 C2.013397210557767 6.716427752933756, 1.6145607442151264 6.823295662002349, 1.2155372436685128 6.893654271085456 C0.8165137431218992 6.964012880168563, 0.4051790812228379 7, 4.286263797015736e-16 7 C-0.405179081222837 7, -0.8165137431218985 6.964012880168563, -1.2155372436685121 6.893654271085456 C-1.6145607442151257 6.823295662002349, -2.0133972105577667 6.716427752933756, -2.394141003279681 6.5778483455013586 C-2.774884796001595 6.439268938068961, -3.149104622578983 6.26476736710249, -3.4999999999999982 6.062177826491071 C-3.8508953774210135 5.859588285879653, -4.189128084166966 5.6227551949470636, -4.499513267805773 5.362311101832848 C-4.809898451444581 5.101867008718632, -5.101867008718628 4.809898451444586, -5.3623111018328435 4.499513267805779 C-5.622755194947059 4.189128084166971, -5.859588285879649 3.8508953774210206, -6.062177826491068 3.5000000000000053 C-6.264767367102486 3.14910462257899, -6.439268938068958 2.774884796001602, -6.577848345501356 2.394141003279688 C-6.716427752933754 2.0133972105577738, -6.823295662002347 1.614560744215134, -6.893654271085454 1.215537243668521 C-6.9640128801685615 0.816513743121908, -6.999999999999999 0.4051790812228472, -7 1.0183126166254463e-14 C-7.000000000000001 -0.40517908122282686, -6.964012880168565 -0.8165137431218878, -6.893654271085459 -1.215537243668501 C-6.823295662002352 -1.6145607442151142, -6.716427752933759 -2.0133972105577542, -6.577848345501363 -2.394141003279669 C-6.439268938068967 -2.7748847960015834, -6.264767367102496 -3.149104622578972, -6.062177826491078 -3.4999999999999876 C-5.859588285879661 -3.8508953774210033, -5.6227551949470715 -4.1891280841669545, -5.362311101832856 -4.499513267805763 C-5.10186700871864 -4.809898451444571, -4.809898451444594 -5.10186700871862, -4.499513267805787 -5.362311101832836 C-4.189128084166979 -5.622755194947053, -3.850895377421028 -5.859588285879643, -3.5000000000000133 -6.062177826491062 C-3.1491046225789985 -6.264767367102482, -2.774884796001611 -6.439268938068954, -2.3941410032796973 -6.577848345501353 C-2.0133972105577835 -6.716427752933752, -1.6145607442151435 -6.823295662002345, -1.2155372436685306 -6.893654271085453 C-0.8165137431219176 -6.9640128801685615, -0.40517908122285695 -6.999999999999999, -1.9937625952807352e-14 -7 C0.4051790812228171 -7.000000000000001, 0.8165137431218781 -6.964012880168565, 1.2155372436684913 -6.89365427108546 C1.6145607442151044 -6.823295662002354, 2.013397210557745 -6.716427752933763, 2.3941410032796595 -6.5778483455013665 C2.774884796001574 -6.43926893806897, 3.149104622578963 -6.2647673671025, 3.499999999999979 -6.062177826491083 C3.8508953774209953 -5.859588285879665, 4.189128084166947 -5.622755194947077, 4.499513267805756 -5.362311101832862 C4.809898451444564 -5.1018670087186475, 5.101867008718613 -4.809898451444602, 5.362311101832829 -4.499513267805796 C5.622755194947046 -4.189128084166989, 5.859588285879637 -3.8508953774210393, 6.062177826491056 -3.500000000000025 C6.2647673671024755 -3.1491046225790105, 6.439268938068949 -2.774884796001623, 6.577848345501348 -2.3941410032797092 C6.716427752933747 -2.0133972105577955, 6.823295662002342 -1.6145607442151562, 6.893654271085451 -1.2155372436685434 C6.96401288016856 -0.8165137431219307, 6.982275711847575 -0.2025895406114567, 7 -3.2800750208310675e-14 C7.017724288152425 0.2025895406113911, 7.017724288152424 -0.2025895406114242, 7 0" stroke="#374151" stroke-width="2" fill="none" stroke-dasharray="0 0" style=""/><g><path d="M2.5 0 C2.5 0.14470681472244193, 2.487147457203058 0.29161205111496386, 2.46201938253052 0.4341204441673258 C2.436891307857982 0.5766288372196877, 2.3987241974763416 0.7190704323420595, 2.3492315519647713 0.8550503583141718 C2.299738906453201 0.991030284286284, 2.2374169168223177 1.124680222349637, 2.165063509461097 1.2499999999999998 C2.092710102099876 1.3753197776503625, 2.0081268553382365 1.496117172916774, 1.915111107797445 1.6069690242163481 C1.8220953602566536 1.7178208755159223, 1.7178208755159226 1.8220953602566536, 1.6069690242163484 1.915111107797445 C1.4961171729167742 2.0081268553382365, 1.375319777650363 2.0927101020998755, 1.2500000000000002 2.1650635094610964 C1.1246802223496375 2.2374169168223172, 0.9910302842862845 2.2997389064532, 0.8550503583141721 2.349231551964771 C0.7190704323420597 2.3987241974763416, 0.576628837219688 2.436891307857982, 0.43412044416732604 2.46201938253052 C0.291612051114964 2.487147457203058, 0.14470681472244212 2.5, 1.5308084989341916e-16 2.5 C-0.1447068147224418 2.5, -0.2916120511149638 2.487147457203058, -0.43412044416732576 2.46201938253052 C-0.5766288372196877 2.436891307857982, -0.7190704323420595 2.3987241974763416, -0.8550503583141718 2.3492315519647713 C-0.991030284286284 2.299738906453201, -1.124680222349637 2.2374169168223177, -1.2499999999999996 2.165063509461097 C-1.375319777650362 2.092710102099876, -1.4961171729167733 2.008126855338237, -1.6069690242163475 1.9151111077974459 C-1.7178208755159217 1.8220953602566548, -1.822095360256653 1.7178208755159234, -1.9151111077974443 1.6069690242163495 C-2.0081268553382357 1.4961171729167755, -2.0927101020998746 1.3753197776503645, -2.1650635094610955 1.250000000000002 C-2.2374169168223164 1.1246802223496395, -2.2997389064531992 0.9910302842862865, -2.34923155196477 0.8550503583141743 C-2.3987241974763407 0.7190704323420621, -2.436891307857981 0.5766288372196907, -2.4620193825305194 0.434120444167329 C-2.487147457203058 0.29161205111496724, -2.5 0.14470681472244545, -2.5 3.636830773662308e-15 C-2.5 -0.14470681472243818, -2.4871474572030587 -0.2916120511149599, -2.4620193825305208 -0.4341204441673218 C-2.436891307857983 -0.5766288372196837, -2.398724197476343 -0.7190704323420553, -2.3492315519647726 -0.8550503583141675 C-2.2997389064532023 -0.9910302842862798, -2.23741691682232 -1.1246802223496328, -2.165063509461099 -1.2499999999999956 C-2.092710102099878 -1.3753197776503583, -2.00812685533824 -1.4961171729167695, -1.9151111077974488 -1.606969024216344 C-1.8220953602566576 -1.7178208755159183, -1.7178208755159263 -1.82209536025665, -1.6069690242163523 -1.9151111077974416 C-1.4961171729167784 -2.0081268553382334, -1.3753197776503672 -2.0927101020998724, -1.2500000000000047 -2.1650635094610937 C-1.1246802223496422 -2.237416916822315, -0.9910302842862897 -2.299738906453198, -0.8550503583141776 -2.3492315519647686 C-0.7190704323420656 -2.3987241974763394, -0.5766288372196942 -2.4368913078579806, -0.43412044416733236 -2.462019382530519 C-0.29161205111497057 -2.4871474572030574, -0.1447068147224489 -2.4999999999999996, -7.120580697431198e-15 -2.5 C0.14470681472243463 -2.5000000000000004, 0.29161205111495647 -2.487147457203059, 0.4341204441673183 -2.4620193825305217 C0.5766288372196802 -2.436891307857984, 0.7190704323420518 -2.3987241974763442, 0.8550503583141642 -2.349231551964774 C0.9910302842862766 -2.2997389064532037, 1.1246802223496295 -2.2374169168223212, 1.2499999999999925 -2.165063509461101 C1.3753197776503554 -2.0927101020998804, 1.4961171729167668 -2.008126855338242, 1.6069690242163412 -1.915111107797451 C1.7178208755159157 -1.82209536025666, 1.8220953602566472 -1.7178208755159294, 1.915111107797439 -1.6069690242163557 C2.0081268553382308 -1.496117172916782, 2.09271010209987 -1.3753197776503712, 2.1650635094610915 -1.2500000000000089 C2.237416916822313 -1.1246802223496466, 2.299738906453196 -0.9910302842862939, 2.3492315519647673 -0.855050358314182 C2.3987241974763385 -0.71907043234207, 2.4368913078579792 -0.5766288372196986, 2.462019382530518 -0.4341204441673369 C2.487147457203057 -0.29161205111497523, 2.4936698970884197 -0.07235340736123454, 2.5 -1.1714553645825241e-14 C2.5063301029115803 0.07235340736121111, 2.50633010291158 -0.07235340736122292, 2.5 0" stroke="none" stroke-width="0" fill="#000" style=""/><path d="M2.5 0 C2.5 0.14470681472244193, 2.487147457203058 0.29161205111496386, 2.46201938253052 0.4341204441673258 C2.436891307857982 0.5766288372196877, 2.3987241974763416 0.7190704323420595, 2.3492315519647713 0.8550503583141718 C2.299738906453201 0.991030284286284, 2.2374169168223177 1.124680222349637, 2.165063509461097 1.2499999999999998 C2.092710102099876 1.3753197776503625, 2.0081268553382365 1.496117172916774, 1.915111107797445 1.6069690242163481 C1.8220953602566536 1.7178208755159223, 1.7178208755159226 1.8220953602566536, 1.6069690242163484 1.915111107797445 C1.4961171729167742 2.0081268553382365, 1.375319777650363 2.0927101020998755, 1.2500000000000002 2.1650635094610964 C1.1246802223496375 2.2374169168223172, 0.9910302842862845 2.2997389064532, 0.8550503583141721 2.349231551964771 C0.7190704323420597 2.3987241974763416, 0.576628837219688 2.436891307857982, 0.43412044416732604 2.46201938253052 C0.291612051114964 2.487147457203058, 0.14470681472244212 2.5, 1.5308084989341916e-16 2.5 C-0.1447068147224418 2.5, -0.2916120511149638 2.487147457203058, -0.43412044416732576 2.46201938253052 C-0.5766288372196877 2.436891307857982, -0.7190704323420595 2.3987241974763416, -0.8550503583141718 2.3492315519647713 C-0.991030284286284 2.299738906453201, -1.124680222349637 2.2374169168223177, -1.2499999999999996 2.165063509461097 C-1.375319777650362 2.092710102099876, -1.4961171729167733 2.008126855338237, -1.6069690242163475 1.9151111077974459 C-1.7178208755159217 1.8220953602566548, -1.822095360256653 1.7178208755159234, -1.9151111077974443 1.6069690242163495 C-2.0081268553382357 1.4961171729167755, -2.0927101020998746 1.3753197776503645, -2.1650635094610955 1.250000000000002 C-2.2374169168223164 1.1246802223496395, -2.2997389064531992 0.9910302842862865, -2.34923155196477 0.8550503583141743 C-2.3987241974763407 0.7190704323420621, -2.436891307857981 0.5766288372196907, -2.4620193825305194 0.434120444167329 C-2.487147457203058 0.29161205111496724, -2.5 0.14470681472244545, -2.5 3.636830773662308e-15 C-2.5 -0.14470681472243818, -2.4871474572030587 -0.2916120511149599, -2.4620193825305208 -0.4341204441673218 C-2.436891307857983 -0.5766288372196837, -2.398724197476343 -0.7190704323420553, -2.3492315519647726 -0.8550503583141675 C-2.2997389064532023 -0.9910302842862798, -2.23741691682232 -1.1246802223496328, -2.165063509461099 -1.2499999999999956 C-2.092710102099878 -1.3753197776503583, -2.00812685533824 -1.4961171729167695, -1.9151111077974488 -1.606969024216344 C-1.8220953602566576 -1.7178208755159183, -1.7178208755159263 -1.82209536025665, -1.6069690242163523 -1.9151111077974416 C-1.4961171729167784 -2.0081268553382334, -1.3753197776503672 -2.0927101020998724, -1.2500000000000047 -2.1650635094610937 C-1.1246802223496422 -2.237416916822315, -0.9910302842862897 -2.299738906453198, -0.8550503583141776 -2.3492315519647686 C-0.7190704323420656 -2.3987241974763394, -0.5766288372196942 -2.4368913078579806, -0.43412044416733236 -2.462019382530519 C-0.29161205111497057 -2.4871474572030574, -0.1447068147224489 -2.4999999999999996, -7.120580697431198e-15 -2.5 C0.14470681472243463 -2.5000000000000004, 0.29161205111495647 -2.487147457203059, 0.4341204441673183 -2.4620193825305217 C0.5766288372196802 -2.436891307857984, 0.7190704323420518 -2.3987241974763442, 0.8550503583141642 -2.349231551964774 C0.9910302842862766 -2.2997389064532037, 1.1246802223496295 -2.2374169168223212, 1.2499999999999925 -2.165063509461101 C1.3753197776503554 -2.0927101020998804, 1.4961171729167668 -2.008126855338242, 1.6069690242163412 -1.915111107797451 C1.7178208755159157 -1.82209536025666, 1.8220953602566472 -1.7178208755159294, 1.915111107797439 -1.6069690242163557 C2.0081268553382308 -1.496117172916782, 2.09271010209987 -1.3753197776503712, 2.1650635094610915 -1.2500000000000089 C2.237416916822313 -1.1246802223496466, 2.299738906453196 -0.9910302842862939, 2.3492315519647673 -0.855050358314182 C2.3987241974763385 -0.71907043234207, 2.4368913078579792 -0.5766288372196986, 2.462019382530518 -0.4341204441673369 C2.487147457203057 -0.29161205111497523, 2.4936698970884197 -0.07235340736123454, 2.5 -1.1714553645825241e-14 C2.5063301029115803 0.07235340736121111, 2.50633010291158 -0.07235340736122292, 2.5 0" stroke="#000" stroke-width="2" fill="none" stroke-dasharray="0 0" style=""/></g></g></g></g></g></g><defs><filter id="my-svg-drop-shadow" height="130%" width="130%"><feDropShadow dx="4" dy="4" stdDeviation="0" flood-opacity="0.06" flood-color="#000000"/></filter></defs><defs><filter id="my-svg-drop-shadow-small" height="150%" width="150%"><feDropShadow dx="2" dy="2" stdDeviation="0" flood-opacity="0.06" flood-color="#000000"/></filter></defs><linearGradient id="my-svg-gradient" gradientUnits="objectBoundingBox" x1="0%" y1="0%" x2="100%" y2="0%"><stop offset="0%" stop-color="hsl(0, 0%, 83.3333333333%)" stop-opacity="1"/><stop offset="100%" stop-color="hsl(0, 0%, 88.9215686275%)" stop-opacity="1"/></linearGradient><text text-anchor="middle" x="288.34765625" y="-25" class="statediagramTitleText">Ciclo de vida da ordem de serviço</text></svg>